<?xml version="1.0" standalone="no"?>
<!DOCTYPE svg PUBLIC "-//W3C//DTD SVG 20010904//EN"
 "http://www.w3.org/TR/2001/REC-SVG-20010904/DTD/svg10.dtd">
<svg version="1.0" xmlns="http://www.w3.org/2000/svg"
 width="1500.000000pt" height="1500.000000pt" viewBox="0 0 1500.000000 1500.000000"
 preserveAspectRatio="xMidYMid meet">
<metadata>
Created by potrace 1.14, written by Peter Selinger 2001-2017
</metadata>
<g transform="translate(0.000000,1500.000000) scale(0.100000,-0.100000)"
fill="#000000" stroke="none">
<path d="M4965 11889 c-33 -3 -79 -5 -103 -5 -23 1 -42 -1 -42 -4 0 -4 -10 -6
-22 -7 -23 0 -72 -7 -138 -19 -19 -3 -42 -10 -51 -15 -9 -4 -19 -6 -22 -3 -2
3 -31 -3 -63 -12 -33 -10 -61 -18 -64 -19 -33 -6 -166 -58 -245 -96 -197 -94
-355 -215 -468 -359 -29 -36 -55 -66 -59 -68 -5 -2 -8 -8 -8 -13 0 -5 -15 -32
-33 -61 -18 -29 -43 -78 -56 -108 -12 -30 -26 -64 -31 -75 -13 -28 -48 -162
-55 -210 -4 -22 -8 -51 -11 -65 -11 -64 -5 -261 11 -350 34 -197 161 -407 331
-547 67 -56 211 -146 299 -187 65 -31 250 -103 285 -112 8 -2 40 -10 70 -19
30 -9 74 -21 98 -26 24 -5 47 -11 51 -13 4 -3 21 -8 37 -10 50 -10 68 -14 109
-25 22 -5 54 -13 70 -15 17 -3 66 -15 110 -26 44 -12 87 -21 95 -22 8 0 53 -9
100 -20 47 -11 92 -21 100 -23 110 -22 342 -104 415 -148 78 -46 106 -68 155
-119 62 -64 95 -136 107 -233 4 -33 7 -62 6 -65 0 -3 -4 -34 -7 -70 -11 -102
-62 -199 -156 -292 -42 -42 -97 -86 -121 -98 -24 -13 -46 -26 -49 -30 -3 -4
-14 -9 -25 -13 -11 -3 -50 -17 -88 -31 -37 -14 -80 -28 -95 -31 -15 -3 -38 -7
-52 -10 -116 -24 -335 -24 -455 -1 -44 9 -89 18 -100 19 -36 6 -180 60 -183
69 -2 4 -11 8 -19 8 -27 0 -175 105 -226 160 -71 76 -112 146 -148 251 -32 95
-40 108 -74 126 -28 15 -669 14 -700 -1 -39 -18 -55 -57 -50 -120 2 -31 6 -60
9 -64 3 -4 7 -26 10 -48 6 -39 14 -74 36 -149 13 -43 86 -198 121 -255 67
-111 205 -258 316 -336 37 -27 70 -51 73 -54 3 -3 16 -11 30 -18 14 -7 52 -28
85 -47 50 -29 246 -112 280 -120 5 -1 35 -9 66 -19 31 -9 67 -19 80 -21 13 -3
38 -8 54 -12 17 -4 32 -7 35 -8 6 -1 103 -16 135 -21 11 -1 36 -5 55 -8 89
-15 398 -21 510 -11 106 9 186 18 205 21 11 3 38 7 60 9 22 3 48 8 57 11 20 6
54 14 93 21 17 3 80 22 140 42 61 20 117 39 125 42 29 8 215 103 221 112 3 5
10 9 15 9 8 1 83 47 94 58 3 3 21 17 40 31 87 65 260 256 260 287 0 6 4 12 9
14 19 7 113 206 127 271 1 4 2 8 4 10 1 2 3 9 14 52 2 11 10 40 16 65 13 49
23 416 13 434 -4 6 -8 22 -8 36 -3 40 -35 140 -68 210 -76 164 -201 305 -368
416 -53 35 -101 64 -107 64 -7 0 -12 3 -12 8 0 4 -24 18 -52 30 -29 13 -75 34
-103 47 -127 58 -463 160 -592 180 -11 2 -31 6 -43 10 -12 4 -32 8 -43 10 -12
2 -31 6 -42 8 -22 6 -95 23 -135 31 -14 3 -45 10 -70 16 -25 6 -56 12 -70 14
-47 7 -195 47 -282 77 -183 63 -299 136 -373 235 -24 32 -43 60 -43 63 1 4 -4
18 -10 32 -23 55 -29 147 -18 247 6 48 52 170 73 190 7 7 13 17 13 20 0 8 66
78 103 109 53 45 199 109 287 127 14 2 48 9 75 15 28 5 124 8 215 7 142 -3
179 -7 262 -29 178 -49 332 -151 420 -280 45 -65 86 -155 94 -202 2 -11 7 -31
11 -45 3 -14 7 -27 8 -30 11 -44 23 -57 65 -67 13 -3 483 -6 623 -4 40 1 54 6
79 31 29 29 29 32 24 98 -3 37 -9 81 -12 97 -4 17 -8 39 -9 50 -2 11 -4 20 -5
20 -1 0 -3 11 -6 25 -10 62 -93 256 -147 345 -87 146 -271 322 -437 419 -64
37 -234 117 -280 131 -3 1 -36 11 -75 23 -38 11 -81 23 -95 26 -14 3 -56 12
-95 20 -163 34 -418 50 -570 35z"/>
<path d="M9657 11874 c-1 -1 -36 -5 -77 -8 -41 -3 -88 -8 -105 -11 -16 -3 -48
-8 -70 -11 -55 -7 -67 -9 -90 -17 -11 -3 -36 -9 -55 -13 -19 -3 -39 -7 -45 -8
-5 -1 -16 -5 -22 -9 -7 -5 -17 -5 -23 -2 -5 3 -10 2 -10 -4 0 -5 -8 -8 -17 -7
-10 2 -33 -6 -51 -16 -19 -10 -30 -14 -27 -8 4 7 -10 3 -31 -8 -22 -11 -43
-21 -49 -22 -5 -1 -21 -7 -35 -13 -14 -6 -27 -11 -30 -12 -3 -1 -27 -12 -55
-25 -27 -13 -52 -24 -55 -25 -20 -6 -106 -52 -112 -60 -5 -7 -8 -7 -8 0 0 6
-6 3 -13 -5 -7 -8 -33 -26 -60 -40 -26 -13 -47 -28 -47 -32 0 -5 -5 -8 -12 -8
-9 0 -113 -72 -128 -89 -3 -4 -21 -18 -40 -32 -19 -15 -48 -39 -65 -54 -82
-76 -135 -127 -135 -130 0 -2 -20 -24 -45 -49 -25 -25 -43 -46 -40 -46 3 0
-11 -17 -30 -37 -19 -20 -35 -41 -35 -46 0 -4 -5 -5 -10 -2 -6 4 -9 3 -8 -2 3
-9 -45 -83 -74 -114 -10 -11 -18 -21 -18 -24 0 -9 -64 -110 -72 -113 -5 -2 -6
-8 -2 -13 3 -5 0 -9 -5 -9 -6 0 -10 -3 -9 -7 1 -5 -24 -61 -56 -126 -32 -65
-55 -121 -52 -124 3 -3 -1 -12 -9 -20 -8 -8 -15 -23 -15 -34 0 -10 -5 -19 -12
-19 -6 0 -9 -3 -5 -6 3 -4 0 -22 -8 -40 -8 -19 -14 -37 -15 -39 0 -3 0 -6 -1
-7 -4 -13 -9 -39 -15 -68 -3 -19 -9 -39 -14 -45 -4 -5 -6 -20 -5 -32 1 -13 -3
-23 -8 -23 -5 0 -7 -9 -4 -20 3 -11 1 -20 -3 -20 -5 0 -7 -8 -6 -17 2 -10 -1
-36 -7 -58 -5 -22 -9 -52 -9 -68 1 -15 -2 -25 -6 -23 -4 2 -7 -28 -7 -67 1
-40 -3 -77 -8 -84 -4 -6 -3 -14 3 -18 6 -3 8 -11 4 -16 -16 -26 2 -379 22
-410 5 -8 3 -9 -5 -4 -10 6 -11 3 -2 -12 5 -11 11 -37 13 -57 1 -20 5 -36 9
-36 4 0 6 -13 5 -30 -1 -16 2 -30 8 -30 5 0 7 -3 3 -6 -3 -3 1 -24 9 -46 7
-21 13 -42 12 -46 -2 -12 14 -67 25 -79 5 -7 6 -13 2 -13 -4 0 -2 -7 5 -15 7
-8 9 -15 5 -15 -4 0 -3 -6 2 -12 5 -7 9 -20 8 -28 0 -8 4 -20 10 -26 6 -6 17
-31 25 -55 8 -24 18 -47 23 -50 4 -3 9 -16 10 -27 1 -12 4 -22 7 -22 3 0 11
-9 18 -21 11 -17 11 -20 0 -13 -7 4 -5 -2 5 -13 9 -11 17 -23 17 -27 0 -8 106
-190 125 -214 5 -7 17 -22 27 -32 9 -10 14 -21 11 -24 -3 -3 7 -16 21 -29 14
-13 26 -30 26 -36 0 -7 5 -9 10 -6 6 3 10 0 10 -7 0 -35 344 -378 380 -378 6
0 8 -4 5 -10 -3 -5 1 -10 9 -10 9 0 16 -4 16 -10 0 -5 5 -10 10 -10 6 0 20 -8
31 -18 10 -11 32 -25 47 -33 15 -8 29 -16 32 -19 9 -9 44 -30 68 -40 12 -5 22
-15 22 -21 0 -7 3 -9 7 -6 3 4 12 2 20 -4 7 -6 13 -9 13 -5 0 3 9 -2 20 -12
12 -9 22 -15 24 -12 2 3 12 -2 22 -11 22 -19 217 -102 239 -102 8 0 15 -4 15
-8 0 -4 7 -10 16 -13 8 -3 12 -2 9 4 -3 5 7 3 22 -5 15 -8 35 -15 44 -15 9 0
19 -3 23 -7 7 -7 31 -14 59 -16 9 -1 17 -4 17 -7 0 -4 6 -7 13 -8 6 0 23 -3
37 -6 14 -4 36 -9 50 -12 14 -3 33 -6 43 -6 9 1 17 -5 17 -11 0 -7 4 -6 10 3
5 8 10 10 10 5 0 -6 12 -11 28 -10 15 0 30 -4 34 -10 5 -6 8 -5 8 3 0 7 5 10
11 6 6 -3 36 -8 67 -10 66 -5 90 -19 29 -18 -23 0 -52 -3 -65 -8 -17 -6 -21
-5 -16 4 5 7 3 8 -7 2 -15 -9 -21 -10 -84 -19 -22 -3 -53 -8 -70 -11 -16 -3
-39 -7 -51 -8 -11 -2 -27 -7 -35 -11 -7 -5 -20 -10 -29 -11 -56 -8 -138 -33
-154 -46 -6 -4 -16 -8 -22 -8 -7 0 -25 -5 -41 -12 -15 -6 -30 -12 -33 -13 -3
-1 -13 -5 -22 -8 -10 -4 -26 -10 -35 -14 -10 -3 -21 -5 -25 -5 -5 1 -8 -3 -8
-9 0 -6 -7 -9 -15 -5 -8 3 -15 2 -15 -3 0 -4 -22 -18 -50 -30 -27 -12 -50 -27
-50 -32 0 -4 -7 -6 -15 -3 -8 4 -15 1 -15 -5 0 -6 -3 -10 -7 -9 -8 2 -40 -16
-93 -52 -14 -9 -35 -20 -48 -24 -12 -4 -20 -12 -17 -17 4 -5 -1 -9 -9 -9 -9 0
-25 -9 -35 -19 -11 -11 -22 -17 -25 -14 -3 4 -6 1 -6 -5 0 -7 -6 -12 -13 -12
-7 0 -20 -8 -29 -17 -9 -10 -29 -27 -44 -38 -15 -11 -44 -36 -65 -56 -21 -20
-39 -36 -41 -35 -2 1 -19 -16 -39 -36 -21 -21 -36 -38 -35 -38 1 0 -27 -30
-63 -67 -35 -38 -76 -85 -91 -105 -15 -21 -30 -34 -34 -31 -3 3 -6 0 -6 -9 0
-8 -8 -24 -17 -36 -41 -49 -53 -67 -53 -79 0 -7 -4 -13 -9 -13 -9 0 -59 -78
-59 -94 0 -5 -4 -12 -9 -15 -12 -9 -80 -134 -88 -161 0 -3 -11 -26 -23 -52
-12 -26 -22 -52 -22 -57 0 -6 -6 -11 -12 -11 -9 0 -8 -4 2 -10 8 -5 10 -10 4
-10 -7 0 -14 -8 -17 -17 -4 -10 -13 -35 -20 -55 -8 -21 -12 -40 -9 -43 3 -3
-1 -5 -8 -5 -7 0 -11 -3 -7 -6 3 -3 0 -26 -8 -50 -7 -24 -11 -44 -8 -44 3 0 1
-6 -5 -12 -11 -15 -45 -169 -37 -176 2 -2 -1 -14 -7 -25 -6 -12 -12 -48 -15
-81 -2 -34 -5 -84 -7 -112 -1 -28 -6 -56 -10 -62 -4 -7 -2 -12 4 -12 6 0 8 -5
4 -12 -11 -18 -6 -209 11 -373 2 -22 4 -40 5 -40 3 0 10 -41 13 -72 1 -18 5
-33 8 -33 3 0 6 -12 7 -27 1 -26 8 -68 12 -68 1 0 3 -8 6 -17 2 -10 5 -24 7
-30 2 -7 7 -29 11 -48 5 -19 13 -41 18 -47 6 -7 8 -13 4 -13 -4 0 0 -13 9 -30
9 -16 13 -30 10 -30 -3 0 4 -19 16 -43 12 -23 21 -44 21 -47 -1 -3 11 -30 25
-60 14 -30 26 -61 26 -67 0 -7 4 -13 9 -13 4 0 8 -7 8 -15 0 -8 5 -15 10 -15
6 0 10 -9 10 -20 0 -11 5 -20 11 -20 5 0 8 -4 5 -9 -3 -5 1 -14 9 -21 8 -7 15
-17 15 -22 0 -6 9 -23 21 -39 11 -16 17 -29 12 -29 -4 0 0 -5 10 -11 9 -5 17
-14 17 -20 0 -5 5 -15 10 -22 40 -47 50 -61 50 -71 0 -6 9 -17 20 -24 11 -7
20 -19 20 -27 0 -8 9 -19 20 -25 11 -6 18 -15 15 -21 -4 -5 1 -9 9 -9 9 0 16
-4 16 -9 0 -17 224 -251 240 -251 5 0 10 -4 12 -9 4 -11 118 -103 118 -95 0 4
8 -2 18 -12 27 -30 139 -104 146 -97 3 3 6 0 6 -7 0 -7 3 -11 6 -7 3 3 15 -3
27 -14 11 -10 27 -19 34 -19 7 0 13 -4 13 -8 0 -5 18 -14 40 -21 22 -6 40 -16
40 -21 0 -6 6 -10 13 -10 8 0 41 -13 75 -30 34 -16 69 -30 77 -30 8 0 15 -4
15 -10 0 -5 10 -10 23 -10 13 0 27 -4 32 -8 6 -5 30 -14 55 -21 25 -8 52 -16
60 -19 8 -3 20 -7 25 -8 6 -1 12 -3 15 -4 10 -3 46 -11 80 -17 19 -3 37 -8 40
-12 3 -3 16 -7 30 -9 38 -3 85 -10 85 -12 0 -1 14 -3 30 -5 17 -2 55 -6 85
-10 30 -3 89 -7 130 -8 41 -1 78 -6 82 -12 5 -7 8 -7 8 0 0 6 31 10 78 9 42 0
85 3 94 8 9 4 19 4 22 -1 4 -5 22 -5 43 -1 20 5 39 8 42 8 3 0 8 1 11 2 3 1
19 3 35 5 41 4 137 21 143 25 1 2 5 3 10 4 89 18 134 30 138 37 2 4 11 6 19 2
9 -3 15 1 15 8 0 11 3 11 10 -1 6 -10 10 -11 10 -2 0 6 6 12 14 12 7 0 31 8
52 17 22 9 44 18 49 19 6 1 33 12 60 25 28 13 53 22 58 21 4 -1 7 3 7 9 0 5 5
7 10 4 6 -3 10 -1 10 5 0 6 5 8 10 5 6 -3 10 -1 10 5 0 6 5 8 10 5 6 -3 10 -1
10 4 0 6 5 11 11 11 14 0 181 92 223 123 6 4 37 26 69 48 31 22 57 45 57 50 0
6 4 8 9 4 5 -3 21 6 35 20 14 14 28 25 31 25 3 0 20 14 38 31 18 16 61 57 96
90 l63 60 -98 97 c-55 53 -98 100 -96 104 1 4 -2 8 -6 8 -13 0 -181 168 -174
174 3 3 1 6 -5 6 -14 0 -133 118 -133 131 0 6 -5 7 -10 4 -6 -3 -14 4 -19 17
-6 13 -10 19 -10 15 -1 -5 -8 -1 -17 8 -16 15 -19 14 -48 -14 -32 -31 -68 -62
-109 -93 -75 -59 -117 -88 -117 -82 0 4 -8 -2 -17 -12 -10 -10 -25 -20 -33
-22 -8 -2 -22 -10 -31 -18 -9 -8 -19 -11 -22 -7 -4 3 -7 0 -7 -7 0 -7 -3 -10
-7 -7 -3 4 -13 1 -22 -6 -20 -17 -146 -70 -166 -70 -8 0 -15 -4 -15 -9 0 -4
-9 -8 -20 -8 -10 0 -29 -5 -42 -10 -31 -14 -191 -47 -217 -45 -11 1 -21 -1
-21 -4 0 -4 -55 -5 -122 -4 -161 3 -208 6 -208 13 0 3 -15 7 -32 8 -61 5 -73
7 -78 14 -3 3 -18 8 -35 11 -30 5 -112 31 -150 47 -11 5 -35 14 -52 22 -18 7
-33 17 -33 22 0 4 -7 6 -15 2 -8 -3 -15 -1 -15 5 0 6 -4 7 -10 4 -5 -3 -10 -2
-10 2 0 8 -29 26 -62 39 -10 3 -18 11 -18 16 0 5 -4 6 -10 3 -5 -3 -10 -1 -10
6 0 7 -3 9 -6 6 -4 -4 -15 3 -25 15 -11 11 -19 17 -19 13 0 -4 -9 2 -20 15
-11 13 -20 20 -20 16 0 -15 -146 126 -215 209 -52 61 -115 149 -115 159 0 3
-13 25 -30 49 -16 25 -30 51 -30 59 0 8 -9 24 -20 36 -12 12 -18 22 -15 22 5
0 -20 73 -36 103 -5 10 -7 22 -4 27 3 5 1 11 -4 14 -9 6 -26 82 -19 89 1 2 -2
10 -9 18 -7 8 -14 45 -16 81 -3 37 -8 71 -11 76 -3 6 -6 21 -6 33 1 13 1 66 1
117 0 107 0 114 14 124 6 5 5 8 -3 8 -7 0 -11 3 -9 8 5 7 14 54 22 112 4 22
11 51 31 125 3 11 6 26 6 33 1 6 6 12 11 12 6 0 8 3 5 6 -10 10 70 194 84 194
5 0 7 4 4 9 -3 5 4 20 15 35 11 14 17 26 12 26 -4 0 0 5 10 11 9 5 17 17 17
24 0 8 5 15 11 15 5 0 8 4 5 9 -3 5 1 11 9 15 8 3 15 12 15 20 0 7 7 17 16 20
9 4 15 9 12 11 -3 3 11 23 31 43 20 21 59 63 87 93 53 57 119 112 130 107 3
-2 12 8 19 22 8 14 14 22 15 17 0 -8 113 64 118 76 2 4 8 5 13 1 5 -3 9 0 9 7
0 7 3 10 6 7 3 -4 30 7 61 23 30 16 59 27 63 24 5 -3 10 -1 12 5 2 6 14 12 27
15 14 2 27 8 30 12 5 7 24 12 59 15 6 1 12 5 12 9 0 4 8 6 18 4 9 -1 22 1 27
5 29 22 395 60 395 41 0 -3 24 -6 53 -7 65 -1 119 -6 132 -13 5 -3 16 -6 25
-7 8 -1 25 -5 38 -8 12 -3 32 -9 45 -12 39 -9 39 -9 134 -46 29 -11 55 -19 59
-18 4 1 10 -2 13 -7 3 -5 29 -20 56 -33 28 -14 52 -27 55 -30 3 -3 17 -11 32
-19 15 -8 37 -23 48 -33 11 -10 20 -16 20 -13 0 4 7 0 15 -7 7 -7 28 -24 45
-38 17 -14 61 -54 98 -90 37 -36 69 -64 72 -63 3 1 3 -77 0 -174 -3 -96 -1
-177 3 -180 4 -3 3 -11 -3 -18 -6 -7 -7 -15 -3 -18 10 -6 8 -64 -2 -96 -5 -18
-9 -20 -21 -10 -8 6 -14 7 -14 2 0 -11 -61 -10 -78 1 -6 3 -13 3 -15 -1 -7
-10 -108 -10 -124 0 -7 5 -13 4 -13 0 0 -5 -19 -8 -42 -6 -53 4 -53 4 -105 0
-24 -2 -43 1 -43 6 0 4 -6 5 -12 1 -17 -11 -128 -11 -128 -1 0 5 -5 5 -11 1
-18 -11 -89 -11 -89 0 0 5 -3 6 -7 2 -13 -12 -12 -419 1 -435 7 -10 7 -13 0
-8 -7 4 -10 -54 -10 -192 l1 -197 773 0 c742 0 773 0 769 18 -3 10 -1 21 4 24
6 4 6 11 -1 19 -6 7 -7 16 -2 19 4 2 7 20 5 38 -5 39 -5 41 -2 96 1 24 -1 46
-4 49 -4 3 -2 14 4 24 7 13 6 19 -1 19 -6 0 -8 5 -4 12 11 17 12 78 1 78 -4 0
-3 8 2 19 6 10 8 21 5 24 -9 9 -10 78 -1 84 4 3 3 11 -3 18 -6 7 -7 16 -2 19
4 2 7 20 5 38 -5 39 -5 41 -2 96 1 24 -1 46 -4 49 -4 3 -2 14 4 24 7 13 6 19
-1 19 -6 0 -8 5 -4 12 11 17 12 78 1 78 -4 0 -3 8 2 19 6 10 8 21 5 24 -9 9
-10 78 -1 84 4 3 3 11 -3 18 -6 7 -7 16 -2 19 4 2 7 20 5 38 -2 18 -4 39 -3
46 1 28 0 39 -2 72 -1 20 1 41 5 47 4 6 3 14 -3 18 -6 4 -7 12 -3 18 10 16 10
77 0 77 -4 0 -3 8 2 19 6 10 8 21 5 24 -9 9 -10 78 -1 84 4 3 3 11 -3 18 -6 7
-7 16 -2 19 4 2 7 20 5 38 -2 18 -4 39 -3 46 1 28 0 39 -2 72 -1 20 1 41 5 47
4 6 3 14 -3 18 -6 4 -7 12 -3 18 10 16 10 77 0 77 -4 0 -3 8 2 19 6 10 8 21 5
24 -9 9 -10 78 -1 84 4 3 3 11 -3 18 -6 8 -7 16 -2 19 10 6 7 60 -4 78 -4 6
-3 9 2 5 9 -5 9 92 0 101 -3 2 -1 13 5 23 7 13 6 19 -1 19 -6 0 -8 5 -4 12 11
17 12 78 1 78 -4 0 -3 8 2 18 5 10 6 24 1 32 -4 7 -6 18 -4 24 9 26 11 86 2
86 -5 0 -4 8 1 19 6 10 8 21 5 24 -9 9 -10 78 -1 84 4 3 3 11 -3 18 -6 8 -7
16 -2 19 10 6 7 60 -4 78 -4 6 -3 9 2 5 9 -5 9 75 0 98 -2 6 0 18 4 26 5 8 4
19 -2 26 -6 8 -7 13 -1 13 6 0 8 12 6 28 -2 15 -4 36 -3 47 2 26 1 32 -2 78
-2 21 0 41 5 44 4 3 3 11 -3 18 -6 8 -7 16 -2 19 10 6 7 60 -4 78 -4 6 -3 9 2
5 9 -5 9 75 0 98 -2 6 0 18 4 26 5 8 4 19 -2 26 -6 8 -7 13 -1 13 6 0 8 12 6
28 -2 15 -4 36 -3 47 2 26 1 32 -2 78 -2 21 0 41 5 44 4 3 3 11 -3 18 -6 8 -7
16 -2 19 10 6 7 60 -4 78 -4 6 -3 9 2 5 9 -5 9 75 0 98 -2 6 0 18 4 26 5 8 4
19 -2 26 -6 8 -7 13 -1 13 6 0 8 12 6 28 -2 15 -4 36 -3 47 2 26 1 32 -2 78
-2 21 0 41 5 44 4 3 3 11 -3 18 -6 8 -7 16 -2 19 10 6 7 60 -4 78 -4 6 -3 9 2
5 9 -5 9 75 0 98 -2 6 0 18 4 26 5 8 4 19 -2 26 -6 8 -7 13 -1 13 10 0 10 41
0 57 -3 5 -2 15 3 23 4 7 4 24 -1 37 -5 15 -5 22 0 18 6 -3 6 6 1 25 -5 18 -5
32 1 36 6 4 6 11 -1 19 -6 8 -7 16 -2 19 10 6 7 60 -4 78 -4 6 -3 9 2 6 5 -4
9 20 9 52 0 32 -3 56 -7 53 -5 -2 -4 7 2 21 7 18 6 26 -1 26 -8 0 -8 4 -2 13
10 12 10 44 -1 54 -2 3 -1 15 4 27 4 13 5 28 1 35 -5 7 -5 30 -1 51 4 21 3 45
-2 54 -6 10 -5 16 2 16 7 0 8 6 1 17 -5 10 -5 26 0 40 5 14 5 23 -1 23 -6 0
-6 9 -2 23 20 55 66 52 -756 51 -416 -1 -764 -2 -772 -3 -14 -1 -16 -49 -16
-411 l1 -410 35 -1 c19 0 180 -1 358 -1 l322 0 0 -247 0 -247 -50 -48 c-27
-26 -50 -52 -50 -57 0 -5 -4 -9 -10 -9 -10 0 -22 -9 -83 -62 -18 -15 -38 -28
-46 -28 -8 0 -11 -3 -8 -6 4 -4 -10 -16 -31 -27 -20 -11 -40 -25 -44 -31 -4
-6 -8 -8 -8 -3 0 4 -18 -4 -40 -18 -22 -14 -40 -22 -40 -18 0 5 -4 3 -8 -3 -6
-8 -165 -78 -182 -79 -3 0 -11 -4 -17 -8 -7 -5 -13 -6 -13 -3 0 2 -15 0 -32
-5 -126 -39 -353 -54 -498 -35 -30 5 -68 9 -85 11 -16 1 -32 4 -35 5 -3 1 -9
3 -15 4 -5 1 -17 5 -25 9 -8 3 -26 8 -40 10 -31 5 -57 14 -93 32 -17 9 -25 10
-21 3 4 -6 -3 -4 -17 5 -13 9 -31 17 -41 17 -10 0 -18 5 -18 10 0 6 -6 10 -14
10 -32 0 -199 100 -293 177 -66 53 -143 132 -143 145 0 5 -4 6 -10 3 -5 -3
-10 -1 -10 5 0 6 -10 21 -22 34 -31 32 -66 76 -86 109 -9 15 -20 27 -25 27 -4
0 -6 4 -2 9 3 5 -2 17 -11 25 -8 9 -13 16 -9 16 3 0 -3 10 -14 22 -11 11 -18
25 -15 30 3 4 0 8 -5 8 -6 0 -11 9 -11 20 0 11 -4 20 -10 20 -5 0 -10 9 -10
20 0 11 -4 20 -8 20 -8 0 -56 141 -51 150 1 3 -3 15 -10 28 -14 26 -21 52 -26
102 -2 19 -4 35 -5 35 -1 0 -4 14 -5 30 -2 17 -6 46 -9 65 -6 40 -7 211 -1
255 2 17 7 53 11 80 3 28 7 60 7 73 1 12 5 22 9 22 4 0 7 3 6 8 -4 17 15 92
23 92 6 0 8 4 5 9 -4 5 -1 22 6 38 6 15 12 31 13 36 2 4 3 8 5 10 1 1 3 10 5
20 2 10 10 29 19 42 9 13 16 31 16 40 0 8 4 15 9 15 5 0 13 10 17 23 3 12 24
48 45 80 22 31 36 57 32 57 -5 0 0 5 10 11 9 5 17 17 17 24 0 8 5 15 10 15 6
0 10 7 10 16 0 8 5 12 10 9 6 -3 10 -2 10 4 0 8 28 42 98 118 12 13 22 22 22
19 0 -2 19 14 43 37 24 23 41 46 38 51 -2 5 1 6 7 2 6 -3 13 -2 17 4 4 6 11 8
16 5 5 -4 9 1 9 9 0 9 6 16 13 16 8 0 27 11 42 24 31 27 222 126 243 126 6 0
12 5 12 12 0 6 3 9 6 5 3 -3 30 3 60 14 30 11 58 18 64 14 5 -3 10 -1 10 6 0
7 3 9 6 6 4 -3 14 -2 24 3 20 11 66 20 129 25 24 3 49 10 57 16 8 6 14 7 14 2
0 -5 19 -8 43 -6 85 7 133 6 145 -1 7 -4 12 -2 12 6 0 8 3 9 8 3 4 -5 18 -10
32 -10 14 1 54 -4 90 -11 36 -7 68 -10 73 -7 4 2 7 -1 7 -8 0 -7 3 -10 6 -6 3
3 23 -1 45 -8 22 -8 41 -14 44 -15 35 -5 65 -14 65 -21 0 -5 3 -8 8 -7 12 4
132 -46 132 -55 0 -5 4 -6 9 -2 5 3 15 0 23 -7 7 -7 20 -14 28 -16 8 -2 18 -8
21 -14 3 -5 9 -9 12 -9 11 1 67 -34 67 -41 0 -5 6 -8 13 -8 7 0 23 -9 35 -20
12 -12 22 -18 22 -14 0 4 8 -3 19 -14 10 -12 26 -22 35 -22 10 0 14 -4 11 -10
-3 -5 -3 -10 2 -10 4 0 32 -23 61 -50 43 -41 57 -49 68 -39 8 6 14 8 14 4 0
-8 16 9 53 57 9 12 17 19 17 15 0 -7 10 3 108 106 34 36 62 62 62 59 0 -4 9 6
19 21 10 16 22 29 25 30 8 2 155 147 149 147 -2 0 5 8 15 18 9 11 19 18 22 18
3 -1 21 15 41 36 21 21 34 38 30 38 -3 0 0 4 7 9 13 8 -10 33 -132 144 -22 20
-48 44 -57 52 -9 8 -20 15 -25 15 -5 0 -16 9 -24 19 -7 11 -17 18 -21 15 -4
-2 -15 6 -23 18 -9 12 -16 18 -16 13 0 -6 -4 -5 -8 1 -8 12 -114 83 -154 103
-16 8 -28 18 -28 23 0 5 -4 7 -9 3 -5 -3 -12 -1 -16 4 -5 9 -132 75 -145 76
-3 1 -36 16 -75 35 -38 18 -76 32 -82 31 -7 -1 -13 4 -13 10 0 7 -3 9 -7 6 -3
-4 -12 -2 -20 4 -7 6 -13 8 -13 4 0 -4 -6 -3 -12 2 -7 6 -26 14 -43 18 -16 5
-36 10 -42 12 -7 1 -21 5 -30 7 -10 3 -18 5 -18 6 0 1 -7 3 -15 5 -8 2 -28 6
-45 10 -16 4 -39 8 -50 9 -11 2 -29 5 -40 9 -36 11 -79 19 -112 20 -18 1 -33
4 -33 7 0 5 -84 9 -293 14 -42 1 -78 1 -80 0z m1113 -4378 l0 -235 -30 10
c-16 6 -30 15 -30 20 0 5 -7 9 -16 9 -15 0 -27 5 -100 43 -17 9 -34 14 -38 10
-3 -3 -6 -1 -6 6 0 7 -4 9 -10 6 -5 -3 -10 -2 -10 4 0 5 -8 8 -17 7 -10 -2
-25 1 -33 5 -28 14 -74 29 -97 31 -7 1 -13 5 -13 10 0 5 -5 6 -10 3 -6 -4 -18
-1 -27 7 -14 11 -16 11 -8 -1 6 -11 5 -12 -6 -5 -15 9 -17 10 -64 19 -16 3
-38 8 -48 11 -25 8 -76 15 -114 17 -18 1 -33 4 -33 7 0 3 -29 5 -64 5 -35 0
-62 3 -59 7 2 5 9 6 14 3 5 -4 9 -3 9 2 0 4 24 8 53 7 28 0 56 2 62 5 5 3 25
6 45 7 30 2 57 7 105 18 6 2 28 6 50 10 22 4 47 10 55 13 8 3 20 7 25 8 6 2
30 9 55 16 25 7 47 13 50 14 21 4 117 39 125 45 6 4 21 11 35 15 13 4 30 14
38 21 7 8 17 12 22 9 4 -3 13 2 20 10 7 8 21 15 31 15 10 0 21 5 24 10 3 6 8
10 11 10 2 0 4 -106 4 -234z"/>
<path d="M4987 7484 c-2 -2 -136 -14 -192 -18 -11 -1 -24 -4 -30 -6 -5 -3 -29
-6 -52 -5 -24 0 -43 -3 -43 -6 0 -3 -6 -6 -12 -7 -65 -5 -173 -31 -278 -67
-58 -19 -110 -36 -117 -38 -7 -2 -16 -6 -19 -10 -4 -4 -16 -7 -26 -7 -10 0
-18 -4 -18 -10 0 -5 -6 -10 -14 -10 -17 0 -100 -42 -104 -52 -2 -5 -9 -8 -15
-8 -17 0 -141 -83 -207 -139 -94 -79 -188 -187 -257 -296 -32 -50 -104 -215
-108 -245 0 -3 -3 -9 -7 -15 -5 -9 -15 -54 -33 -145 -25 -126 -24 -326 1 -463
7 -43 54 -177 76 -222 21 -41 93 -151 112 -171 6 -6 27 -29 47 -50 42 -45 106
-104 114 -104 3 0 13 -8 23 -17 30 -29 70 -56 130 -89 32 -17 74 -41 94 -52
109 -62 418 -172 557 -198 7 -1 34 -8 60 -14 25 -6 55 -12 66 -15 11 -2 38 -9
60 -15 22 -6 51 -12 65 -14 14 -2 45 -8 70 -14 25 -6 56 -13 70 -15 21 -4 273
-63 305 -71 66 -17 103 -28 120 -35 11 -5 52 -21 90 -35 197 -76 324 -193 360
-334 44 -164 -4 -354 -119 -475 -48 -51 -152 -125 -168 -119 -5 1 -8 -2 -8 -7
0 -5 -8 -11 -17 -14 -10 -2 -58 -17 -108 -31 -49 -15 -121 -29 -160 -33 -78
-7 -261 -6 -315 1 -89 13 -110 17 -149 31 -23 8 -43 15 -46 15 -12 2 -82 32
-100 42 -11 6 -32 18 -46 25 -15 7 -32 20 -39 28 -7 8 -17 15 -23 15 -12 0
-127 118 -127 131 0 5 -4 9 -9 9 -11 0 -88 156 -95 191 -9 49 -18 85 -28 112
-21 55 -37 57 -388 57 -403 0 -401 1 -395 -135 1 -39 10 -101 20 -140 9 -38
18 -77 20 -85 22 -99 130 -318 190 -387 5 -6 21 -26 35 -44 33 -44 138 -148
180 -179 18 -14 39 -31 46 -37 7 -7 17 -13 22 -13 6 0 12 -3 14 -7 11 -25 235
-146 333 -181 17 -5 39 -13 50 -18 11 -4 25 -8 30 -9 6 -2 35 -10 66 -19 31
-9 67 -19 80 -21 13 -3 47 -9 74 -15 144 -28 197 -32 420 -33 275 0 393 13
597 67 181 47 424 159 528 243 8 7 33 26 55 43 47 37 185 171 185 180 0 4 10
18 21 31 86 96 180 299 213 460 67 328 10 617 -169 854 -35 47 -153 165 -165
165 -4 0 -14 7 -21 16 -17 21 -126 91 -210 137 -114 61 -394 164 -499 183 -8
2 -33 7 -55 13 -22 5 -80 19 -130 30 -49 11 -130 29 -180 40 -49 11 -101 22
-115 25 -93 19 -213 46 -219 50 -4 3 -20 7 -36 10 -125 23 -346 113 -439 180
-89 64 -177 194 -181 270 -1 18 -4 37 -7 42 -6 12 -3 108 6 159 13 82 74 185
157 267 43 42 91 83 106 91 150 80 266 118 403 132 60 6 249 6 280 0 14 -3 45
-7 70 -9 179 -18 404 -118 525 -233 87 -82 139 -167 178 -291 28 -87 37 -101
77 -118 30 -12 642 -12 680 1 44 14 47 24 45 145 -1 122 -26 227 -81 348 -13
28 -24 54 -23 57 0 3 -9 17 -21 32 -11 14 -20 30 -20 35 0 8 -36 64 -50 78 -3
3 -24 30 -47 60 -48 62 -124 137 -198 196 -27 21 -51 42 -53 47 -2 4 -8 7 -13
7 -6 0 -36 17 -67 38 -31 21 -95 57 -142 79 -86 42 -298 119 -351 128 -16 3
-57 12 -91 19 -74 17 -170 31 -277 42 -55 6 -389 13 -394 8z"/>
</g>
</svg>
