<svg xmlns="http://www.w3.org/2000/svg" width="200" height="200" xmlns:v="https://vecta.io/nano"><defs><linearGradient x1="62.1023273%" y1="0%" x2="108.19718%" y2="37.8635764%" id="A"><stop stop-color="#4285eb" offset="0%"/><stop stop-color="#2ec7ff" offset="100%"/></linearGradient><linearGradient x1="69.644116%" y1="0%" x2="54.0428975%" y2="108.456714%" id="B"><stop stop-color="#29cdff" offset="0%"/><stop stop-color="#148eff" offset="37.8600687%"/><stop stop-color="#0a60ff" offset="100%"/></linearGradient><linearGradient x1="69.6908165%" y1="-12.9743587%" x2="16.7228981%" y2="117.391248%" id="C"><stop stop-color="#fa816e" offset="0%"/><stop stop-color="#f74a5c" offset="41.472606%"/><stop stop-color="#f51d2c" offset="100%"/></linearGradient><linearGradient x1="68.1279872%" y1="-35.6905737%" x2="30.4400914%" y2="114.942679%" id="D"><stop stop-color="#fa8e7d" offset="0%"/><stop stop-color="#f74a5c" offset="51.2635191%"/><stop stop-color="#f51d2c" offset="100%"/></linearGradient></defs><g fill="none" fill-rule="evenodd"><g fill-rule="nonzero"><path d="M91.588 4.177L4.18 91.513c-4.699 4.695-4.699 12.279 0 16.974l87.408 87.336c4.699 4.695 12.289 4.695 16.988 0l36.649-36.619c4.208-4.205 4.208-11.023 0-15.228s-11.032-4.205-15.24 0l-27.783 27.76a2.85 2.85 0 0 1-4.114 0l-69.802-69.744c-1.17-1.169-1.17-2.942 0-4.111l69.802-69.744a2.85 2.85 0 0 1 4.114 0l27.783 27.76c4.208 4.205 11.032 4.205 15.24 0s4.208-11.023 0-15.228L108.581 4.056c-4.719-4.594-12.311-4.557-16.992.121z" fill="url(#A)"/><path d="M91.588 4.177L4.18 91.513c-4.699 4.695-4.699 12.279 0 16.974l87.408 87.336c4.699 4.695 12.289 4.695 16.988 0l36.649-36.619c4.208-4.205 4.208-11.023 0-15.228s-11.032-4.205-15.24 0l-27.783 27.76a2.85 2.85 0 0 1-4.114 0l-69.802-69.744c-1.17-1.169-1.17-2.942 0-4.111l69.802-69.744c2.912-2.511 7.664-7.596 14.642-8.785 5.186-.884 10.856 1.062 17.009 5.836L108.581 4.056c-4.719-4.594-12.311-4.557-16.992.121z" fill="url(#B)"/><path d="M153.686 135.855c4.208 4.205 11.032 4.205 15.24 0l27.034-27.012c4.699-4.695 4.699-12.279.001-16.974l-27.27-27.151c-4.218-4.2-11.044-4.194-15.255.014s-4.208 11.023 0 15.228l18.418 18.403c1.17 1.169 1.17 2.942 0 4.111l-18.168 18.153c-4.208 4.205-4.208 11.023 0 15.228z" fill="url(#C)"/></g><ellipse fill="url(#D)" cx="100.519" cy="100.437" rx="23.6" ry="23.581"/></g></svg>